<?xml version="1.0" encoding="UTF-8" standalone="no"?>
<!DOCTYPE svg PUBLIC "-//W3C//DTD SVG 1.1//EN"
 "http://www.w3.org/Graphics/SVG/1.1/DTD/svg11.dtd">
<!-- Generated by graphviz version 2.40.1 (20161225.0304)
 -->
<!-- Title: dependencies Pages: 1 -->
<svg width="2441pt" height="295pt"
 viewBox="0.00 0.00 2441.00 295.00" xmlns="http://www.w3.org/2000/svg" xmlns:xlink="http://www.w3.org/1999/xlink">
<g id="graph0" class="graph" transform="scale(1 1) rotate(0) translate(4 291)">
<title>dependencies</title>
<polygon fill="#ffffff" stroke="transparent" points="-4,4 -4,-291 2437,-291 2437,4 -4,4"/>
<text text-anchor="start" x="1195.5091" y="-42.4" font-family="sans-serif" font-weight="bold" font-size="14.00" fill="#000000">Legend</text>
<polygon fill="#ffffb3" stroke="transparent" points="982.5,-10 982.5,-30 1002.5,-30 1002.5,-10 982.5,-10"/>
<text text-anchor="start" x="1006.129" y="-15.4" font-family="sans-serif" font-size="14.00" fill="#000000"> &#160;Declarations</text>
<polygon fill="#8dd3c7" stroke="transparent" points="1095.5,-10 1095.5,-30 1115.5,-30 1115.5,-10 1095.5,-10"/>
<text text-anchor="start" x="1119.2251" y="-15.4" font-family="sans-serif" font-size="14.00" fill="#000000"> &#160;Module</text>
<polygon fill="#80b1d3" stroke="transparent" points="1181.5,-10 1181.5,-30 1201.5,-30 1201.5,-10 1181.5,-10"/>
<text text-anchor="start" x="1205.2812" y="-15.4" font-family="sans-serif" font-size="14.00" fill="#000000"> &#160;Bootstrap</text>
<polygon fill="#fdb462" stroke="transparent" points="1278.5,-10 1278.5,-30 1298.5,-30 1298.5,-10 1278.5,-10"/>
<text text-anchor="start" x="1302.1732" y="-15.4" font-family="sans-serif" font-size="14.00" fill="#000000"> &#160;Providers</text>
<polygon fill="#fb8072" stroke="transparent" points="1374.5,-10 1374.5,-30 1394.5,-30 1394.5,-10 1374.5,-10"/>
<text text-anchor="start" x="1398.2258" y="-15.4" font-family="sans-serif" font-size="14.00" fill="#000000"> &#160;Exports</text>
<g id="clust1" class="cluster">
<title>cluster_AchievementsPageModule</title>
<polygon fill="none" stroke="#000000" stroke-dasharray="1,5" points="8,-70 8,-206 190,-206 190,-70 8,-70"/>
</g>
<g id="clust2" class="cluster">
<title>cluster_AchievementsPageModule_declarations</title>
<polygon fill="none" stroke="#000000" points="29,-78 29,-130 169,-130 169,-78 29,-78"/>
</g>
<g id="clust8" class="cluster">
<title>cluster_AppModule</title>
<polygon fill="none" stroke="#000000" stroke-dasharray="1,5" points="2135,-70 2135,-279 2425,-279 2425,-70 2135,-70"/>
</g>
<g id="clust9" class="cluster">
<title>cluster_AppModule_declarations</title>
<polygon fill="none" stroke="#000000" points="2295,-78 2295,-130 2417,-130 2417,-78 2295,-78"/>
</g>
<g id="clust11" class="cluster">
<title>cluster_AppModule_imports</title>
<polygon fill="none" stroke="#000000" points="2143,-78 2143,-130 2287,-130 2287,-78 2143,-78"/>
</g>
<g id="clust13" class="cluster">
<title>cluster_AppModule_bootstrap</title>
<polygon fill="none" stroke="#000000" points="2223,-219 2223,-271 2347,-271 2347,-219 2223,-219"/>
</g>
<g id="clust21" class="cluster">
<title>cluster_BlogPageModule</title>
<polygon fill="none" stroke="#000000" stroke-dasharray="1,5" points="769,-70 769,-206 899,-206 899,-70 769,-70"/>
</g>
<g id="clust22" class="cluster">
<title>cluster_BlogPageModule_declarations</title>
<polygon fill="none" stroke="#000000" points="791,-78 791,-130 877,-130 877,-78 791,-78"/>
</g>
<g id="clust28" class="cluster">
<title>cluster_CalendarPageModule</title>
<polygon fill="none" stroke="#000000" stroke-dasharray="1,5" points="907,-70 907,-206 1061,-206 1061,-70 907,-70"/>
</g>
<g id="clust29" class="cluster">
<title>cluster_CalendarPageModule_declarations</title>
<polygon fill="none" stroke="#000000" points="929,-78 929,-130 1039,-130 1039,-78 929,-78"/>
</g>
<g id="clust35" class="cluster">
<title>cluster_ChatRoomPageModule</title>
<polygon fill="none" stroke="#000000" stroke-dasharray="1,5" points="1069,-70 1069,-206 1233,-206 1233,-70 1069,-70"/>
</g>
<g id="clust36" class="cluster">
<title>cluster_ChatRoomPageModule_declarations</title>
<polygon fill="none" stroke="#000000" points="1091,-78 1091,-130 1211,-130 1211,-78 1091,-78"/>
</g>
<g id="clust42" class="cluster">
<title>cluster_DatesPageModule</title>
<polygon fill="none" stroke="#000000" stroke-dasharray="1,5" points="1241,-70 1241,-206 1375,-206 1375,-70 1241,-70"/>
</g>
<g id="clust43" class="cluster">
<title>cluster_DatesPageModule_declarations</title>
<polygon fill="none" stroke="#000000" points="1262,-78 1262,-130 1354,-130 1354,-78 1262,-78"/>
</g>
<g id="clust49" class="cluster">
<title>cluster_GoalsPageModule</title>
<polygon fill="none" stroke="#000000" stroke-dasharray="1,5" points="1383,-70 1383,-206 1519,-206 1519,-70 1383,-70"/>
</g>
<g id="clust50" class="cluster">
<title>cluster_GoalsPageModule_declarations</title>
<polygon fill="none" stroke="#000000" points="1405,-78 1405,-130 1497,-130 1497,-78 1405,-78"/>
</g>
<g id="clust56" class="cluster">
<title>cluster_HomePageModule</title>
<polygon fill="none" stroke="#000000" stroke-dasharray="1,5" points="1527,-70 1527,-206 1663,-206 1663,-70 1527,-70"/>
</g>
<g id="clust57" class="cluster">
<title>cluster_HomePageModule_declarations</title>
<polygon fill="none" stroke="#000000" points="1548,-78 1548,-130 1642,-130 1642,-78 1548,-78"/>
</g>
<g id="clust63" class="cluster">
<title>cluster_JournalPageModule</title>
<polygon fill="none" stroke="#000000" stroke-dasharray="1,5" points="1671,-70 1671,-206 1815,-206 1815,-70 1671,-70"/>
</g>
<g id="clust64" class="cluster">
<title>cluster_JournalPageModule_declarations</title>
<polygon fill="none" stroke="#000000" points="1693,-78 1693,-130 1793,-130 1793,-78 1693,-78"/>
</g>
<g id="clust70" class="cluster">
<title>cluster_MainPageModule</title>
<polygon fill="none" stroke="#000000" stroke-dasharray="1,5" points="1823,-70 1823,-206 1955,-206 1955,-70 1823,-70"/>
</g>
<g id="clust71" class="cluster">
<title>cluster_MainPageModule_declarations</title>
<polygon fill="none" stroke="#000000" points="1845,-78 1845,-130 1933,-130 1933,-78 1845,-78"/>
</g>
<g id="clust77" class="cluster">
<title>cluster_MeditationPageModule</title>
<polygon fill="none" stroke="#000000" stroke-dasharray="1,5" points="1963,-70 1963,-206 2127,-206 2127,-70 1963,-70"/>
</g>
<g id="clust78" class="cluster">
<title>cluster_MeditationPageModule_declarations</title>
<polygon fill="none" stroke="#000000" points="1985,-78 1985,-130 2105,-130 2105,-78 1985,-78"/>
</g>
<g id="clust84" class="cluster">
<title>cluster_MenuPageModule</title>
<polygon fill="none" stroke="#000000" stroke-dasharray="1,5" points="198,-146 198,-271 761,-271 761,-146 198,-146"/>
</g>
<g id="clust85" class="cluster">
<title>cluster_MenuPageModule_declarations</title>
<polygon fill="none" stroke="#000000" points="661,-154 661,-206 753,-206 753,-154 661,-154"/>
</g>
<g id="clust87" class="cluster">
<title>cluster_MenuPageModule_imports</title>
<polygon fill="none" stroke="#000000" points="206,-154 206,-206 653,-206 653,-154 206,-154"/>
</g>
<g id="clust97" class="cluster">
<title>cluster_ProfilePageModule</title>
<polygon fill="none" stroke="#000000" stroke-dasharray="1,5" points="219,-70 219,-138 333,-138 333,-70 219,-70"/>
</g>
<g id="clust98" class="cluster">
<title>cluster_ProfilePageModule_declarations</title>
<polygon fill="none" stroke="#000000" points="227,-78 227,-130 325,-130 325,-78 227,-78"/>
</g>
<g id="clust104" class="cluster">
<title>cluster_RegisterPageModule</title>
<polygon fill="none" stroke="#000000" stroke-dasharray="1,5" points="362,-70 362,-138 484,-138 484,-70 362,-70"/>
</g>
<g id="clust105" class="cluster">
<title>cluster_RegisterPageModule_declarations</title>
<polygon fill="none" stroke="#000000" points="370,-78 370,-130 476,-130 476,-78 370,-78"/>
</g>
<!-- AchievementsPage -->
<g id="node1" class="node">
<title>AchievementsPage</title>
<polygon fill="#ffffb3" stroke="#000000" points="160.7935,-122 37.2065,-122 37.2065,-86 160.7935,-86 160.7935,-122"/>
<text text-anchor="middle" x="99" y="-99.8" font-family="Times,serif" font-size="14.00" fill="#000000">AchievementsPage</text>
</g>
<!-- AchievementsPageModule -->
<g id="node2" class="node">
<title>AchievementsPageModule</title>
<polygon fill="#8dd3c7" stroke="#000000" points="182.3431,-198 179.3431,-202 158.3431,-202 155.3431,-198 15.6569,-198 15.6569,-162 182.3431,-162 182.3431,-198"/>
<text text-anchor="middle" x="99" y="-175.8" font-family="Times,serif" font-size="14.00" fill="#000000">AchievementsPageModule</text>
</g>
<!-- AchievementsPage&#45;&gt;AchievementsPageModule -->
<g id="edge1" class="edge">
<title>AchievementsPage&#45;&gt;AchievementsPageModule</title>
<path fill="none" stroke="#000000" d="M99,-122.0109C99,-122.0109 99,-151.855 99,-151.855"/>
<polygon fill="#000000" stroke="#000000" points="95.5001,-151.8549 99,-161.855 102.5001,-151.855 95.5001,-151.8549"/>
</g>
<!-- MenuPageModule -->
<g id="node26" class="node">
<title>MenuPageModule</title>
<polygon fill="#8dd3c7" stroke="#000000" points="752.9215,-263 749.9215,-267 728.9215,-267 725.9215,-263 633.0785,-263 633.0785,-227 752.9215,-227 752.9215,-263"/>
<text text-anchor="middle" x="693" y="-240.8" font-family="Times,serif" font-size="14.00" fill="#000000">MenuPageModule</text>
</g>
<!-- AchievementsPageModule&#45;&gt;MenuPageModule -->
<g id="edge15" class="edge">
<title>AchievementsPageModule&#45;&gt;MenuPageModule</title>
<path fill="none" stroke="#000000" d="M99,-198.2921C99,-220.2057 99,-254 99,-254 99,-254 623.0505,-254 623.0505,-254"/>
<polygon fill="#000000" stroke="#000000" points="623.0506,-257.5001 633.0505,-254 623.0505,-250.5001 623.0506,-257.5001"/>
</g>
<!-- AppComponent -->
<g id="node3" class="node">
<title>AppComponent</title>
<polygon fill="#ffffb3" stroke="#000000" points="2408.9399,-122 2303.0601,-122 2303.0601,-86 2408.9399,-86 2408.9399,-122"/>
<text text-anchor="middle" x="2356" y="-99.8" font-family="Times,serif" font-size="14.00" fill="#000000">AppComponent</text>
</g>
<!-- AppModule -->
<g id="node4" class="node">
<title>AppModule</title>
<polygon fill="#8dd3c7" stroke="#000000" points="2326.6571,-198 2323.6571,-202 2302.6571,-202 2299.6571,-198 2243.3429,-198 2243.3429,-162 2326.6571,-162 2326.6571,-198"/>
<text text-anchor="middle" x="2285" y="-175.8" font-family="Times,serif" font-size="14.00" fill="#000000">AppModule</text>
</g>
<!-- AppComponent&#45;&gt;AppModule -->
<g id="edge2" class="edge">
<title>AppComponent&#45;&gt;AppModule</title>
<path fill="none" stroke="#000000" d="M2315.0544,-122.0109C2315.0544,-122.0109 2315.0544,-151.855 2315.0544,-151.855"/>
<polygon fill="#000000" stroke="#000000" points="2311.5544,-151.8549 2315.0544,-161.855 2318.5544,-151.855 2311.5544,-151.8549"/>
</g>
<!-- AppComponent  -->
<g id="node6" class="node">
<title>AppComponent </title>
<polygon fill="#80b1d3" stroke="#000000" points="2339.439,-263 2230.561,-263 2230.561,-227 2339.439,-227 2339.439,-263"/>
<text text-anchor="middle" x="2285" y="-240.8" font-family="Times,serif" font-size="14.00" fill="#000000">AppComponent </text>
</g>
<!-- AppModule&#45;&gt;AppComponent  -->
<g id="edge4" class="edge">
<title>AppModule&#45;&gt;AppComponent </title>
<path fill="none" stroke="#000000" stroke-dasharray="1,5" d="M2285,-198.1061C2285,-198.1061 2285,-216.991 2285,-216.991"/>
<polygon fill="#000000" stroke="#000000" points="2281.5001,-216.9909 2285,-226.991 2288.5001,-216.991 2281.5001,-216.9909"/>
</g>
<!-- AppRoutingModule -->
<g id="node5" class="node">
<title>AppRoutingModule</title>
<polygon fill="#8dd3c7" stroke="#000000" points="2279.2744,-122 2276.2744,-126 2255.2744,-126 2252.2744,-122 2150.7256,-122 2150.7256,-86 2279.2744,-86 2279.2744,-122"/>
<text text-anchor="middle" x="2215" y="-99.8" font-family="Times,serif" font-size="14.00" fill="#000000">AppRoutingModule</text>
</g>
<!-- AppRoutingModule&#45;&gt;AppModule -->
<g id="edge3" class="edge">
<title>AppRoutingModule&#45;&gt;AppModule</title>
<path fill="none" stroke="#000000" d="M2261.2795,-122.0109C2261.2795,-122.0109 2261.2795,-151.855 2261.2795,-151.855"/>
<polygon fill="#000000" stroke="#000000" points="2257.7795,-151.8549 2261.2795,-161.855 2264.7795,-151.855 2257.7795,-151.8549"/>
</g>
<!-- BlogPage -->
<g id="node7" class="node">
<title>BlogPage</title>
<polygon fill="#ffffb3" stroke="#000000" points="869.4404,-122 798.5596,-122 798.5596,-86 869.4404,-86 869.4404,-122"/>
<text text-anchor="middle" x="834" y="-99.8" font-family="Times,serif" font-size="14.00" fill="#000000">BlogPage</text>
</g>
<!-- BlogPageModule -->
<g id="node8" class="node">
<title>BlogPageModule</title>
<polygon fill="#8dd3c7" stroke="#000000" points="890.9888,-198 887.9888,-202 866.9888,-202 863.9888,-198 777.0112,-198 777.0112,-162 890.9888,-162 890.9888,-198"/>
<text text-anchor="middle" x="834" y="-175.8" font-family="Times,serif" font-size="14.00" fill="#000000">BlogPageModule</text>
</g>
<!-- BlogPage&#45;&gt;BlogPageModule -->
<g id="edge5" class="edge">
<title>BlogPage&#45;&gt;BlogPageModule</title>
<path fill="none" stroke="#000000" d="M834,-122.0109C834,-122.0109 834,-151.855 834,-151.855"/>
<polygon fill="#000000" stroke="#000000" points="830.5001,-151.8549 834,-161.855 837.5001,-151.855 830.5001,-151.8549"/>
</g>
<!-- BlogPageModule&#45;&gt;MenuPageModule -->
<g id="edge16" class="edge">
<title>BlogPageModule&#45;&gt;MenuPageModule</title>
<path fill="none" stroke="#000000" d="M776.7131,-180C761.3053,-180 748.823,-180 748.823,-180 748.823,-180 748.823,-216.8939 748.823,-216.8939"/>
<polygon fill="#000000" stroke="#000000" points="745.323,-216.8938 748.823,-226.8939 752.323,-216.8939 745.323,-216.8938"/>
</g>
<!-- CalendarPage -->
<g id="node9" class="node">
<title>CalendarPage</title>
<polygon fill="#ffffb3" stroke="#000000" points="1030.7438,-122 937.2562,-122 937.2562,-86 1030.7438,-86 1030.7438,-122"/>
<text text-anchor="middle" x="984" y="-99.8" font-family="Times,serif" font-size="14.00" fill="#000000">CalendarPage</text>
</g>
<!-- CalendarPageModule -->
<g id="node10" class="node">
<title>CalendarPageModule</title>
<polygon fill="#8dd3c7" stroke="#000000" points="1052.7935,-198 1049.7935,-202 1028.7935,-202 1025.7935,-198 915.2065,-198 915.2065,-162 1052.7935,-162 1052.7935,-198"/>
<text text-anchor="middle" x="984" y="-175.8" font-family="Times,serif" font-size="14.00" fill="#000000">CalendarPageModule</text>
</g>
<!-- CalendarPage&#45;&gt;CalendarPageModule -->
<g id="edge6" class="edge">
<title>CalendarPage&#45;&gt;CalendarPageModule</title>
<path fill="none" stroke="#000000" d="M984,-122.0109C984,-122.0109 984,-151.855 984,-151.855"/>
<polygon fill="#000000" stroke="#000000" points="980.5001,-151.8549 984,-161.855 987.5001,-151.855 980.5001,-151.8549"/>
</g>
<!-- CalendarPageModule&#45;&gt;MenuPageModule -->
<g id="edge17" class="edge">
<title>CalendarPageModule&#45;&gt;MenuPageModule</title>
<path fill="none" stroke="#000000" d="M984,-198.1243C984,-212.7832 984,-231 984,-231 984,-231 762.9425,-231 762.9425,-231"/>
<polygon fill="#000000" stroke="#000000" points="762.9426,-227.5001 752.9425,-231 762.9425,-234.5001 762.9426,-227.5001"/>
</g>
<!-- ChatRoomPage -->
<g id="node11" class="node">
<title>ChatRoomPage</title>
<polygon fill="#ffffb3" stroke="#000000" points="1202.8809,-122 1099.1191,-122 1099.1191,-86 1202.8809,-86 1202.8809,-122"/>
<text text-anchor="middle" x="1151" y="-99.8" font-family="Times,serif" font-size="14.00" fill="#000000">ChatRoomPage</text>
</g>
<!-- ChatRoomPageModule -->
<g id="node12" class="node">
<title>ChatRoomPageModule</title>
<polygon fill="#8dd3c7" stroke="#000000" points="1224.9312,-198 1221.9312,-202 1200.9312,-202 1197.9312,-198 1077.0688,-198 1077.0688,-162 1224.9312,-162 1224.9312,-198"/>
<text text-anchor="middle" x="1151" y="-175.8" font-family="Times,serif" font-size="14.00" fill="#000000">ChatRoomPageModule</text>
</g>
<!-- ChatRoomPage&#45;&gt;ChatRoomPageModule -->
<g id="edge7" class="edge">
<title>ChatRoomPage&#45;&gt;ChatRoomPageModule</title>
<path fill="none" stroke="#000000" d="M1151,-122.0109C1151,-122.0109 1151,-151.855 1151,-151.855"/>
<polygon fill="#000000" stroke="#000000" points="1147.5001,-151.8549 1151,-161.855 1154.5001,-151.855 1147.5001,-151.8549"/>
</g>
<!-- ChatRoomPageModule&#45;&gt;MenuPageModule -->
<g id="edge18" class="edge">
<title>ChatRoomPageModule&#45;&gt;MenuPageModule</title>
<path fill="none" stroke="#000000" d="M1151,-198.0091C1151,-214.0494 1151,-235 1151,-235 1151,-235 762.8755,-235 762.8755,-235"/>
<polygon fill="#000000" stroke="#000000" points="762.8755,-231.5001 752.8755,-235 762.8755,-238.5001 762.8755,-231.5001"/>
</g>
<!-- DatesPage -->
<g id="node13" class="node">
<title>DatesPage</title>
<polygon fill="#ffffb3" stroke="#000000" points="1345.5828,-122 1270.4172,-122 1270.4172,-86 1345.5828,-86 1345.5828,-122"/>
<text text-anchor="middle" x="1308" y="-99.8" font-family="Times,serif" font-size="14.00" fill="#000000">DatesPage</text>
</g>
<!-- DatesPageModule -->
<g id="node14" class="node">
<title>DatesPageModule</title>
<polygon fill="#8dd3c7" stroke="#000000" points="1367.1332,-198 1364.1332,-202 1343.1332,-202 1340.1332,-198 1248.8668,-198 1248.8668,-162 1367.1332,-162 1367.1332,-198"/>
<text text-anchor="middle" x="1308" y="-175.8" font-family="Times,serif" font-size="14.00" fill="#000000">DatesPageModule</text>
</g>
<!-- DatesPage&#45;&gt;DatesPageModule -->
<g id="edge8" class="edge">
<title>DatesPage&#45;&gt;DatesPageModule</title>
<path fill="none" stroke="#000000" d="M1308,-122.0109C1308,-122.0109 1308,-151.855 1308,-151.855"/>
<polygon fill="#000000" stroke="#000000" points="1304.5001,-151.8549 1308,-161.855 1311.5001,-151.855 1304.5001,-151.8549"/>
</g>
<!-- DatesPageModule&#45;&gt;MenuPageModule -->
<g id="edge19" class="edge">
<title>DatesPageModule&#45;&gt;MenuPageModule</title>
<path fill="none" stroke="#000000" d="M1308,-198.0225C1308,-215.3734 1308,-239 1308,-239 1308,-239 762.8078,-239 762.8078,-239"/>
<polygon fill="#000000" stroke="#000000" points="762.8078,-235.5001 752.8078,-239 762.8078,-242.5001 762.8078,-235.5001"/>
</g>
<!-- GoalsPage -->
<g id="node15" class="node">
<title>GoalsPage</title>
<polygon fill="#ffffb3" stroke="#000000" points="1488.8683,-122 1413.1317,-122 1413.1317,-86 1488.8683,-86 1488.8683,-122"/>
<text text-anchor="middle" x="1451" y="-99.8" font-family="Times,serif" font-size="14.00" fill="#000000">GoalsPage</text>
</g>
<!-- GoalsPageModule -->
<g id="node16" class="node">
<title>GoalsPageModule</title>
<polygon fill="#8dd3c7" stroke="#000000" points="1510.9187,-198 1507.9187,-202 1486.9187,-202 1483.9187,-198 1391.0813,-198 1391.0813,-162 1510.9187,-162 1510.9187,-198"/>
<text text-anchor="middle" x="1451" y="-175.8" font-family="Times,serif" font-size="14.00" fill="#000000">GoalsPageModule</text>
</g>
<!-- GoalsPage&#45;&gt;GoalsPageModule -->
<g id="edge9" class="edge">
<title>GoalsPage&#45;&gt;GoalsPageModule</title>
<path fill="none" stroke="#000000" d="M1451,-122.0109C1451,-122.0109 1451,-151.855 1451,-151.855"/>
<polygon fill="#000000" stroke="#000000" points="1447.5001,-151.8549 1451,-161.855 1454.5001,-151.855 1447.5001,-151.8549"/>
</g>
<!-- GoalsPageModule&#45;&gt;MenuPageModule -->
<g id="edge20" class="edge">
<title>GoalsPageModule&#45;&gt;MenuPageModule</title>
<path fill="none" stroke="#000000" d="M1451,-198.2222C1451,-216.8285 1451,-243 1451,-243 1451,-243 762.7954,-243 762.7954,-243"/>
<polygon fill="#000000" stroke="#000000" points="762.7955,-239.5001 752.7954,-243 762.7954,-246.5001 762.7955,-239.5001"/>
</g>
<!-- HomePage -->
<g id="node17" class="node">
<title>HomePage</title>
<polygon fill="#ffffb3" stroke="#000000" points="1633.9248,-122 1556.0752,-122 1556.0752,-86 1633.9248,-86 1633.9248,-122"/>
<text text-anchor="middle" x="1595" y="-99.8" font-family="Times,serif" font-size="14.00" fill="#000000">HomePage</text>
</g>
<!-- HomePageModule -->
<g id="node18" class="node">
<title>HomePageModule</title>
<polygon fill="#8dd3c7" stroke="#000000" points="1655.4734,-198 1652.4734,-202 1631.4734,-202 1628.4734,-198 1534.5266,-198 1534.5266,-162 1655.4734,-162 1655.4734,-198"/>
<text text-anchor="middle" x="1595" y="-175.8" font-family="Times,serif" font-size="14.00" fill="#000000">HomePageModule</text>
</g>
<!-- HomePage&#45;&gt;HomePageModule -->
<g id="edge10" class="edge">
<title>HomePage&#45;&gt;HomePageModule</title>
<path fill="none" stroke="#000000" d="M1595,-122.0109C1595,-122.0109 1595,-151.855 1595,-151.855"/>
<polygon fill="#000000" stroke="#000000" points="1591.5001,-151.8549 1595,-161.855 1598.5001,-151.855 1591.5001,-151.8549"/>
</g>
<!-- HomePageModule&#45;&gt;MenuPageModule -->
<g id="edge21" class="edge">
<title>HomePageModule&#45;&gt;MenuPageModule</title>
<path fill="none" stroke="#000000" d="M1595,-198.308C1595,-218.1455 1595,-247 1595,-247 1595,-247 762.8813,-247 762.8813,-247"/>
<polygon fill="#000000" stroke="#000000" points="762.8813,-243.5001 752.8813,-247 762.8813,-250.5001 762.8813,-243.5001"/>
</g>
<!-- JournalPage -->
<g id="node19" class="node">
<title>JournalPage</title>
<polygon fill="#ffffb3" stroke="#000000" points="1785.4233,-122 1700.5767,-122 1700.5767,-86 1785.4233,-86 1785.4233,-122"/>
<text text-anchor="middle" x="1743" y="-99.8" font-family="Times,serif" font-size="14.00" fill="#000000">JournalPage</text>
</g>
<!-- JournalPageModule -->
<g id="node20" class="node">
<title>JournalPageModule</title>
<polygon fill="#8dd3c7" stroke="#000000" points="1806.972,-198 1803.972,-202 1782.972,-202 1779.972,-198 1679.028,-198 1679.028,-162 1806.972,-162 1806.972,-198"/>
<text text-anchor="middle" x="1743" y="-175.8" font-family="Times,serif" font-size="14.00" fill="#000000">JournalPageModule</text>
</g>
<!-- JournalPage&#45;&gt;JournalPageModule -->
<g id="edge11" class="edge">
<title>JournalPage&#45;&gt;JournalPageModule</title>
<path fill="none" stroke="#000000" d="M1743,-122.0109C1743,-122.0109 1743,-151.855 1743,-151.855"/>
<polygon fill="#000000" stroke="#000000" points="1739.5001,-151.8549 1743,-161.855 1746.5001,-151.855 1739.5001,-151.8549"/>
</g>
<!-- JournalPageModule&#45;&gt;MenuPageModule -->
<g id="edge22" class="edge">
<title>JournalPageModule&#45;&gt;MenuPageModule</title>
<path fill="none" stroke="#000000" d="M1743,-198.2843C1743,-219.3211 1743,-251 1743,-251 1743,-251 762.8419,-251 762.8419,-251"/>
<polygon fill="#000000" stroke="#000000" points="762.8419,-247.5001 752.8419,-251 762.8419,-254.5001 762.8419,-247.5001"/>
</g>
<!-- MainPage -->
<g id="node21" class="node">
<title>MainPage</title>
<polygon fill="#ffffb3" stroke="#000000" points="1925.262,-122 1852.738,-122 1852.738,-86 1925.262,-86 1925.262,-122"/>
<text text-anchor="middle" x="1889" y="-99.8" font-family="Times,serif" font-size="14.00" fill="#000000">MainPage</text>
</g>
<!-- MainPageModule -->
<g id="node22" class="node">
<title>MainPageModule</title>
<polygon fill="#8dd3c7" stroke="#000000" points="1947.3118,-198 1944.3118,-202 1923.3118,-202 1920.3118,-198 1830.6882,-198 1830.6882,-162 1947.3118,-162 1947.3118,-198"/>
<text text-anchor="middle" x="1889" y="-175.8" font-family="Times,serif" font-size="14.00" fill="#000000">MainPageModule</text>
</g>
<!-- MainPage&#45;&gt;MainPageModule -->
<g id="edge12" class="edge">
<title>MainPage&#45;&gt;MainPageModule</title>
<path fill="none" stroke="#000000" d="M1889,-122.0109C1889,-122.0109 1889,-151.855 1889,-151.855"/>
<polygon fill="#000000" stroke="#000000" points="1885.5001,-151.8549 1889,-161.855 1892.5001,-151.855 1885.5001,-151.8549"/>
</g>
<!-- MainPageModule&#45;&gt;MenuPageModule -->
<g id="edge23" class="edge">
<title>MainPageModule&#45;&gt;MenuPageModule</title>
<path fill="none" stroke="#000000" d="M1889,-198.1554C1889,-220.3519 1889,-255 1889,-255 1889,-255 762.719,-255 762.719,-255"/>
<polygon fill="#000000" stroke="#000000" points="762.7191,-251.5001 752.719,-255 762.719,-258.5001 762.7191,-251.5001"/>
</g>
<!-- MeditationPage -->
<g id="node23" class="node">
<title>MeditationPage</title>
<polygon fill="#ffffb3" stroke="#000000" points="2097.1486,-122 1992.8514,-122 1992.8514,-86 2097.1486,-86 2097.1486,-122"/>
<text text-anchor="middle" x="2045" y="-99.8" font-family="Times,serif" font-size="14.00" fill="#000000">MeditationPage</text>
</g>
<!-- MeditationPageModule -->
<g id="node24" class="node">
<title>MeditationPageModule</title>
<polygon fill="#8dd3c7" stroke="#000000" points="2119.1979,-198 2116.1979,-202 2095.1979,-202 2092.1979,-198 1970.8021,-198 1970.8021,-162 2119.1979,-162 2119.1979,-198"/>
<text text-anchor="middle" x="2045" y="-175.8" font-family="Times,serif" font-size="14.00" fill="#000000">MeditationPageModule</text>
</g>
<!-- MeditationPage&#45;&gt;MeditationPageModule -->
<g id="edge13" class="edge">
<title>MeditationPage&#45;&gt;MeditationPageModule</title>
<path fill="none" stroke="#000000" d="M2045,-122.0109C2045,-122.0109 2045,-151.855 2045,-151.855"/>
<polygon fill="#000000" stroke="#000000" points="2041.5001,-151.8549 2045,-161.855 2048.5001,-151.855 2041.5001,-151.8549"/>
</g>
<!-- MeditationPageModule&#45;&gt;MenuPageModule -->
<g id="edge24" class="edge">
<title>MeditationPageModule&#45;&gt;MenuPageModule</title>
<path fill="none" stroke="#000000" d="M2045,-198.3228C2045,-221.6602 2045,-259 2045,-259 2045,-259 762.8382,-259 762.8382,-259"/>
<polygon fill="#000000" stroke="#000000" points="762.8383,-255.5001 752.8382,-259 762.8382,-262.5001 762.8383,-255.5001"/>
</g>
<!-- MenuPage -->
<g id="node25" class="node">
<title>MenuPage</title>
<polygon fill="#ffffb3" stroke="#000000" points="744.8711,-198 669.1289,-198 669.1289,-162 744.8711,-162 744.8711,-198"/>
<text text-anchor="middle" x="707" y="-175.8" font-family="Times,serif" font-size="14.00" fill="#000000">MenuPage</text>
</g>
<!-- MenuPage&#45;&gt;MenuPageModule -->
<g id="edge14" class="edge">
<title>MenuPage&#45;&gt;MenuPageModule</title>
<path fill="none" stroke="#000000" d="M707,-198.1061C707,-198.1061 707,-216.991 707,-216.991"/>
<polygon fill="#000000" stroke="#000000" points="703.5001,-216.9909 707,-226.991 710.5001,-216.991 703.5001,-216.9909"/>
</g>
<!-- MenuRoutingModule -->
<g id="node27" class="node">
<title>MenuRoutingModule</title>
<polygon fill="#8dd3c7" stroke="#000000" points="644.8272,-198 641.8272,-202 620.8272,-202 617.8272,-198 507.1728,-198 507.1728,-162 644.8272,-162 644.8272,-198"/>
<text text-anchor="middle" x="576" y="-175.8" font-family="Times,serif" font-size="14.00" fill="#000000">MenuRoutingModule</text>
</g>
<!-- MenuRoutingModule&#45;&gt;MenuPageModule -->
<g id="edge25" class="edge">
<title>MenuRoutingModule&#45;&gt;MenuPageModule</title>
<path fill="none" stroke="#000000" d="M638.9765,-198.1061C638.9765,-198.1061 638.9765,-216.991 638.9765,-216.991"/>
<polygon fill="#000000" stroke="#000000" points="635.4766,-216.9909 638.9765,-226.991 642.4766,-216.991 635.4766,-216.9909"/>
</g>
<!-- ProfilePageModule -->
<g id="node28" class="node">
<title>ProfilePageModule</title>
<polygon fill="#8dd3c7" stroke="#000000" points="338.3613,-198 335.3613,-202 314.3613,-202 311.3613,-198 213.6387,-198 213.6387,-162 338.3613,-162 338.3613,-198"/>
<text text-anchor="middle" x="276" y="-175.8" font-family="Times,serif" font-size="14.00" fill="#000000">ProfilePageModule</text>
</g>
<!-- ProfilePageModule&#45;&gt;MenuPageModule -->
<g id="edge26" class="edge">
<title>ProfilePageModule&#45;&gt;MenuPageModule</title>
<path fill="none" stroke="#000000" d="M276,-198.1061C276,-217.3391 276,-245 276,-245 276,-245 623.2541,-245 623.2541,-245"/>
<polygon fill="#000000" stroke="#000000" points="623.2541,-248.5001 633.2541,-245 623.254,-241.5001 623.2541,-248.5001"/>
</g>
<!-- RegisterPageModule -->
<g id="node29" class="node">
<title>RegisterPageModule</title>
<polygon fill="#8dd3c7" stroke="#000000" points="489.9144,-198 486.9144,-202 465.9144,-202 462.9144,-198 356.0856,-198 356.0856,-162 489.9144,-162 489.9144,-198"/>
<text text-anchor="middle" x="423" y="-175.8" font-family="Times,serif" font-size="14.00" fill="#000000">RegisterPageModule</text>
</g>
<!-- RegisterPageModule&#45;&gt;MenuPageModule -->
<g id="edge27" class="edge">
<title>RegisterPageModule&#45;&gt;MenuPageModule</title>
<path fill="none" stroke="#000000" d="M423,-198.027C423,-214.3976 423,-236 423,-236 423,-236 623.0782,-236 623.0782,-236"/>
<polygon fill="#000000" stroke="#000000" points="623.0783,-239.5001 633.0782,-236 623.0782,-232.5001 623.0783,-239.5001"/>
</g>
<!-- ProfilePage -->
<g id="node30" class="node">
<title>ProfilePage</title>
<polygon fill="#ffffb3" stroke="#000000" points="316.812,-122 235.188,-122 235.188,-86 316.812,-86 316.812,-122"/>
<text text-anchor="middle" x="276" y="-99.8" font-family="Times,serif" font-size="14.00" fill="#000000">ProfilePage</text>
</g>
<!-- ProfilePage&#45;&gt;ProfilePageModule -->
<g id="edge28" class="edge">
<title>ProfilePage&#45;&gt;ProfilePageModule</title>
<path fill="none" stroke="#000000" d="M276,-122.0109C276,-122.0109 276,-151.855 276,-151.855"/>
<polygon fill="#000000" stroke="#000000" points="272.5001,-151.8549 276,-161.855 279.5001,-151.855 272.5001,-151.8549"/>
</g>
<!-- RegisterPage -->
<g id="node31" class="node">
<title>RegisterPage</title>
<polygon fill="#ffffb3" stroke="#000000" points="467.8641,-122 378.1359,-122 378.1359,-86 467.8641,-86 467.8641,-122"/>
<text text-anchor="middle" x="423" y="-99.8" font-family="Times,serif" font-size="14.00" fill="#000000">RegisterPage</text>
</g>
<!-- RegisterPage&#45;&gt;RegisterPageModule -->
<g id="edge29" class="edge">
<title>RegisterPage&#45;&gt;RegisterPageModule</title>
<path fill="none" stroke="#000000" d="M423,-122.0109C423,-122.0109 423,-151.855 423,-151.855"/>
<polygon fill="#000000" stroke="#000000" points="419.5001,-151.8549 423,-161.855 426.5001,-151.855 419.5001,-151.8549"/>
</g>
</g>
</svg>
